# author: headus 3D tools
#  using: ply2obj v1.8
#   from: uvlayout v2.09.04
mtllib Foulard1.mtl
# 32 vertices
v -72.174000 24.603000 611.465000
v -70.020299 39.648899 610.616551
v -69.973103 34.775102 592.353732
v -72.168204 25.199597 594.645608
v -64.198004 42.671498 610.470922
v -64.035002 36.052800 591.943944
v -58.395704 39.382900 610.637425
v -58.350502 32.333099 590.627662
v -56.258003 21.415401 611.447850
v -56.267202 26.141398 590.364414
v -56.256400 8.926103 606.618748
v -56.256400 15.443300 592.335606
v -70.881001 14.507301 603.245701
v -72.170104 -0.758296 609.304417
v -70.882405 14.118602 613.723545
v -56.256400 -4.440900 587.778232
v -69.156401 34.015501 592.535252
v -69.156401 38.958001 610.847447
v -71.044102 24.601802 611.479403
v -71.044102 25.083500 594.642308
v -64.215300 34.990999 592.285924
v -64.215300 41.606200 610.847447
v -59.274102 31.719099 590.844212
v -59.274102 38.703800 610.847447
v -57.386402 25.988898 590.398652
v -57.386402 21.355902 611.434728
v -57.386402 8.926103 606.618748
v -57.386402 15.443300 592.335606
v -69.752599 14.140401 613.724399
v -71.044102 -0.854100 609.300512
v -69.752599 14.568801 603.247532
v -57.386402 -4.440900 587.778232
# 32 normals
vn -0.755387 0.084936 0.649698
vn -0.679698 0.552829 0.481994
vn -0.566624 0.397180 -0.721876
vn -0.723982 -0.235824 -0.648172
vn 0.013917 0.934231 0.356070
vn 0.031588 0.583074 -0.811787
vn 0.692334 0.544589 0.473173
vn 0.482512 0.410975 -0.773393
vn 0.674113 -0.080999 0.734084
vn 0.716291 0.086370 -0.692334
vn 0.647592 -0.467833 0.601294
vn 0.755875 0.014619 -0.654520
vn -0.700482 -0.384484 -0.601172
vn -0.613288 -0.788775 0.039034
vn -0.629982 -0.042178 0.775377
vn 0.545413 -0.696484 -0.466123
vn 0.375572 -0.558384 -0.739700
vn 0.309376 -0.228896 0.922999
vn 0.691082 0.097632 0.716078
vn 0.582219 -0.413325 -0.699933
vn -0.270524 -0.832631 -0.482970
vn -0.002625 -0.210432 0.977599
vn -0.688580 -0.313465 -0.653879
vn -0.306293 -0.228774 0.923915
vn -0.620979 -0.155680 -0.768113
vn -0.652414 -0.161478 0.740310
vn -0.647684 -0.468138 0.601080
vn -0.755570 0.014222 -0.654825
vn 0.678325 -0.014924 0.734420
vn 0.470915 -0.881310 0.034517
vn 0.779283 -0.287127 -0.556827
vn -0.545535 -0.696698 -0.465696
# 88 uv coords
vt 0.635009 0.341149
vt 0.623487 0.543757
vt 0.379812 0.479431
vt 0.410712 0.348637
vt 0.525647 0.205190
vt 0.665404 0.200326
vt 0.606934 0.001041
vt 0.325015 0.715883
vt 0.274042 0.786286
vt 0.082206 0.607543
vt 0.136878 0.548387
vt 0.043307 0.994910
vt 0.001041 0.916610
vt 0.228405 0.748179
vt 0.252981 0.837136
vt 0.011149 0.587110
vt 0.001041 0.346094
vt 0.282110 0.408997
vt 0.278403 0.495110
vt 0.065306 0.179492
vt 0.255852 0.266306
vt 0.316451 0.001041
vt 0.966266 0.994883
vt 0.890907 0.941700
vt 0.903804 0.934102
vt 0.970577 0.980584
vt 0.865982 0.858301
vt 0.880917 0.856559
vt 0.866868 0.713501
vt 0.881932 0.713235
vt 0.855359 0.441845
vt 0.870417 0.441207
vt 0.959134 0.535958
vt 0.880333 0.555515
vt 0.882423 0.540597
vt 0.948030 0.525773
vt 0.985767 0.404115
vt 0.970759 0.402846
vt 0.970645 0.221008
vt 0.955591 0.221354
vt 0.995310 0.002722
vt 0.980338 0.001041
vt 0.707016 0.001041
vt 0.934255 0.169018
vt 0.899727 0.237199
vt 0.688866 0.080332
vt 0.506869 0.221945
vt 0.317002 0.403408
vt 0.274714 0.342491
vt 0.462030 0.172737
vt 0.877212 0.929984
vt 0.632895 0.995365
vt 0.624328 0.802331
vt 0.848865 0.808407
vt 0.733917 0.667256
vt 0.594173 0.661802
vt 0.652791 0.460978
vt 0.602499 0.762510
vt 0.595303 0.994945
vt 0.328155 0.903682
vt 0.322059 0.824219
vt 0.538377 0.596718
vt 0.347846 0.683566
vt 0.287201 0.418314
vt 0.341401 0.241522
vt 0.263750 0.284993
vt 0.263268 0.269975
vt 0.329667 0.232153
vt 0.373064 0.002023
vt 0.358091 0.001041
vt 0.945812 0.309343
vt 0.942189 0.487749
vt 0.927159 0.486642
vt 0.930757 0.308741
vt 0.964176 0.001939
vt 0.949131 0.001041
vt 0.861511 0.766203
vt 0.784923 0.723835
vt 0.796787 0.714615
vt 0.861995 0.751174
vt 0.759626 0.522373
vt 0.774637 0.522601
vt 0.964482 0.971397
vt 0.980375 0.828254
vt 0.995446 0.828290
vt 0.979551 0.971201
vt 0.958376 0.621778
vt 0.973363 0.620188
# 32 polygons
usemtl wire_153228184
s 1
g Foulard1
f 1/1/1 2/2/2 3/3/3 4/4/4
f 2/8/2 5/9/5 6/10/6 3/11/3
f 5/12/5 7/13/7 8/14/8 6/15/6
f 7/16/7 9/17/9 10/18/10 8/19/8
s off
f 10/18/10 9/17/9 11/20/11 12/21/12
f 13/5/13 14/7/14 15/6/15
f 1/1/1 4/4/4 13/5/13 15/6/15
f 12/21/12 11/20/11 16/22/16
s 1
f 17/51/17 18/52/18 19/53/19 20/54/20
f 21/47/21 22/48/22 18/49/18 17/50/17
f 23/43/23 24/44/24 22/45/22 21/46/21
f 25/61/25 26/58/26 24/59/24 23/60/23
s off
f 27/62/27 26/58/26 25/61/25 28/63/28
f 29/56/29 30/57/30 31/55/31
f 31/55/31 20/54/20 19/53/19 29/56/29
f 32/64/32 27/62/27 28/63/28
s 2
f 2/78/2 1/81/1 19/82/19 18/79/18
s 4
f 4/37/4 3/33/3 17/36/17 20/38/20
s 2
f 5/77/5 2/78/2 18/79/18 22/80/22
s 4
f 3/33/3 6/34/6 21/35/21 17/36/17
s 2
f 7/65/7 5/66/5 22/67/22 24/68/24
s 4
f 6/23/6 8/24/8 23/25/23 21/26/21
s 2
f 9/69/9 7/65/7 24/68/24 26/70/26
s 4
f 8/24/8 10/27/10 25/28/25 23/25/23
s 2
f 11/71/11 9/72/9 26/73/26 27/74/27
s 4
f 10/27/10 12/29/12 28/30/28 25/28/25
f 14/41/14 13/39/13 31/40/31 30/42/30
s 2
f 15/84/15 14/87/14 30/88/30 29/85/29
s 4
f 13/39/13 4/37/4 20/38/20 31/40/31
s 2
f 1/83/1 15/84/15 29/85/29 19/86/19
f 16/75/16 11/71/11 27/74/27 32/76/32
s 4
f 12/29/12 16/31/16 32/32/32 28/30/28
# totals: 32 88 32 32
