# author: headus 3D tools
#  using: ply2obj v1.8
#   from: uvlayout v2.09.04
mtllib Foulard2.mtl
# 32 vertices
v -75.296000 -11.586000 749.402000
v -73.089206 0.375998 760.455894
v -72.216601 7.446200 746.052818
v -74.808200 -5.688302 741.444969
v -65.737200 2.757499 762.957604
v -64.873904 8.615100 747.041771
v -58.080004 0.089898 760.806602
v -57.436202 6.716896 746.397179
v -54.718004 -13.970099 759.130760
v -54.339102 2.149699 744.409386
v -53.906498 -11.712699 746.602563
v -54.085902 -25.063500 750.061972
v -72.985905 -18.902100 738.419763
v -72.094105 -44.935402 739.553674
v -73.289601 -25.352101 744.267418
v -53.001204 -34.944502 744.731773
v -71.215304 6.704396 745.597679
v -71.958903 -0.285900 760.105369
v -73.844105 -11.594199 749.462058
v -73.356503 -5.751302 741.451011
v -64.895001 7.594000 746.422203
v -65.711405 1.731600 762.349387
v -58.373202 5.948098 745.904808
v -59.247302 -0.479602 760.368613
v -55.709900 1.844398 744.148704
v -56.161902 -14.040797 759.008568
v -55.356800 -11.740700 746.523460
v -55.532102 -25.094901 749.944358
v -71.843501 -25.296000 744.379112
v -70.645603 -44.895504 739.648277
v -71.545100 -18.816098 738.557213
v -54.444004 -34.986898 744.591271
# 32 normals
vn -0.817219 -0.282335 0.515199
vn -0.718183 0.049289 0.705091
vn -0.588537 0.739791 -0.317189
vn -0.705091 0.160715 -0.679912
vn -0.032900 0.402094 0.914912
vn 0.067356 0.966276 -0.248489
vn 0.592993 0.225722 0.763688
vn 0.556278 0.782122 -0.289050
vn 0.598975 -0.208021 0.763810
vn 0.810566 0.245071 -0.544589
vn 0.860129 -0.041079 -0.521913
vn 0.667674 -0.336233 0.653971
vn -0.569981 -0.069493 -0.809772
vn -0.510987 -0.859275 -0.014527
vn -0.776598 -0.163371 0.620582
vn 0.580419 -0.810078 -0.091528
vn 0.238937 0.017854 -0.973997
vn 0.284075 -0.814289 0.501282
vn 0.703809 -0.326894 0.619911
vn 0.683391 0.075658 -0.736434
vn 0.034487 -0.222090 -0.974272
vn -0.028475 -0.846792 0.531099
vn -0.265489 -0.064213 -0.957334
vn -0.683483 -0.575597 0.459592
vn -0.359366 -0.125954 -0.918635
vn -0.677837 -0.282213 0.689098
vn -0.563419 -0.168925 -0.799731
vn -0.792071 -0.360984 0.504639
vn 0.662638 -0.094214 0.732711
vn 0.561893 -0.824330 0.060398
vn 0.770433 0.030062 -0.648630
vn -0.491424 -0.841299 -0.217420
# 88 uv coords
vt 0.646632 0.530094
vt 0.692507 0.329492
vt 0.709823 0.338765
vt 0.667481 0.530986
vt 0.799258 0.279793
vt 0.799717 0.296595
vt 0.789993 0.544304
vt 0.995572 0.544961
vt 0.994498 0.565806
vt 0.789425 0.565178
vt 0.628865 0.533678
vt 0.627979 0.554525
vt 0.078713 0.232669
vt 0.026943 0.002257
vt 0.047773 0.001036
vt 0.094201 0.220813
vt 0.188221 0.273302
vt 0.187474 0.256325
vt 0.494301 0.216580
vt 0.705763 0.241080
vt 0.704878 0.261945
vt 0.494518 0.237485
vt 0.995315 0.254286
vt 0.994725 0.275172
vt 0.002054 0.884974
vt 0.107979 0.917475
vt 0.093973 0.930050
vt 0.001036 0.902111
vt 0.150104 0.990541
vt 0.130143 0.995432
vt 0.335229 0.813856
vt 0.001648 0.824080
vt 0.001036 0.803222
vt 0.334805 0.792982
vt 0.535297 0.804458
vt 0.530943 0.784456
vt 0.239378 0.223331
vt 0.274802 0.023470
vt 0.289386 0.035731
vt 0.260255 0.223877
vt 0.380012 0.001036
vt 0.379957 0.018106
vt 0.239973 0.373530
vt 0.263184 0.566408
vt 0.242339 0.565409
vt 0.219157 0.374805
vt 0.226066 0.001036
vt 0.205181 0.001605
vt 0.995126 0.662521
vt 0.894142 0.871328
vt 0.729144 0.718220
vt 0.813325 0.602838
vt 0.624202 0.558549
vt 0.530896 0.642339
vt 0.248705 0.572802
vt 0.161786 0.482206
vt 0.320920 0.657130
vt 0.113714 0.759638
vt 0.047165 0.567139
vt 0.001036 0.375864
vt 0.085236 0.283019
vt 0.016065 0.001036
vt 0.875306 0.526375
vt 0.779275 0.501412
vt 0.807934 0.271502
vt 0.899122 0.283249
vt 0.995717 0.289110
vt 0.976867 0.516280
vt 0.566682 0.783442
vt 0.765460 0.756477
vt 0.862022 0.962610
vt 0.796512 0.995724
vt 0.600778 0.963204
vt 0.408372 0.915023
vt 0.266321 0.994119
vt 0.280723 0.566798
vt 0.253886 0.453634
vt 0.496917 0.430599
vt 0.509711 0.537129
vt 0.263668 0.333622
vt 0.491507 0.320207
vt 0.894702 0.243556
vt 0.688386 0.211382
vt 0.921516 0.001153
vt 0.995087 0.039068
vt 0.721818 0.030990
vt 0.529472 0.079774
vt 0.387565 0.001036
# 32 polygons
usemtl wire_153228184
s 1
g Foulard2
f 1/56/1 2/57/2 3/58/3 4/59/4
f 2/76/2 5/77/5 6/78/6 3/79/3
f 5/77/5 7/80/7 8/81/8 6/78/6
f 7/82/7 9/83/9 10/84/10 8/85/8
s off
f 11/86/11 10/84/10 9/83/9 12/87/12
f 13/60/13 14/62/14 15/61/15
f 1/56/1 4/59/4 13/60/13 15/61/15
f 11/86/11 12/87/12 16/88/16
s 1
f 17/49/17 18/50/18 19/51/19 20/52/20
f 21/66/21 22/63/22 18/64/18 17/65/17
f 23/67/23 24/68/24 22/63/22 21/66/21
f 25/72/25 26/69/26 24/70/24 23/71/23
s off
f 26/69/26 25/72/25 27/73/27 28/74/28
f 29/54/29 30/55/30 31/53/31
f 31/53/31 20/52/20 19/51/19 29/54/29
f 32/75/32 28/74/28 27/73/27
s 2
f 2/13/2 1/14/1 19/15/19 18/16/18
s 4
f 4/37/4 3/38/3 17/39/17 20/40/20
s 2
f 5/17/5 2/13/2 18/16/18 22/18/22
s 4
f 3/38/3 6/41/6 21/42/21 17/39/17
s 2
f 7/2/7 5/5/5 22/6/22 24/3/24
s 4
f 6/25/6 8/26/8 23/27/23 21/28/21
s 2
f 9/1/9 7/2/7 24/3/24 26/4/26
s 4
f 8/26/8 10/29/10 25/30/25 23/27/23
f 10/35/10 11/31/11 27/34/27 25/36/25
s 2
f 12/7/12 9/8/9 26/9/26 28/10/28
s 4
f 14/47/14 13/43/13 31/46/31 30/48/30
s 2
f 15/20/15 14/23/14 30/24/30 29/21/29
s 4
f 13/43/13 4/44/4 20/45/20 31/46/31
s 2
f 1/19/1 15/20/15 29/21/29 19/22/19
f 16/11/16 12/7/12 28/10/28 32/12/32
s 4
f 11/31/11 16/32/16 32/33/32 27/34/27
# totals: 32 88 32 32
