# author: headus 3D tools
#  using: ply2obj v1.8
#   from: uvlayout v2.09.04
mtllib Bougie3.mtl
# 90 vertices
v -1.091000 -60.997000 -540.225000
v -5.347899 -60.997000 -540.225000
v -5.900499 -10.122908 -541.545311
v -0.538301 -10.122908 -541.545311
v -5.347899 -60.997000 -516.082910
v -1.091000 -60.997000 -516.082910
v -0.538301 -5.358600 -511.510342
v -5.900499 -5.358600 -511.510342
v -5.737497 -9.276604 -540.734643
v -0.701400 -9.276604 -540.734643
v -0.701400 -3.825700 -512.698514
v -5.737497 -3.825700 -512.698514
v 11.281398 -6.551100 -526.716640
v 10.406899 -7.497700 -531.585046
v -2.392800 -6.608600 -527.011926
v -2.339799 -6.551100 -526.716640
v 7.888801 -8.329996 -535.866115
v -2.545599 -6.659100 -527.271631
v 4.030999 -8.947908 -539.043848
v -2.779600 -6.696500 -527.464440
v -3.066700 -6.716508 -527.566919
v -3.372200 -6.716508 -527.566919
v -10.469800 -8.947908 -539.043848
v -3.659299 -6.696500 -527.464440
v -14.327698 -8.329996 -535.866115
v -3.893300 -6.659008 -527.271631
v -16.845698 -7.497700 -531.585046
v -4.046000 -6.608600 -527.011926
v -17.720201 -6.551100 -526.716640
v -4.099099 -6.551100 -526.716640
v -16.845698 -5.604596 -521.848112
v -4.046000 -6.493696 -526.421229
v -14.327698 -4.772300 -517.567042
v -3.893300 -6.443196 -526.161523
v -10.469800 -4.154408 -514.389306
v -3.659299 -6.405708 -525.968837
v -3.372200 -6.385800 -525.866235
v -3.066700 -6.385800 -525.866235
v 4.030999 -4.154408 -514.389306
v -2.779600 -6.405708 -525.968837
v 7.888801 -4.772300 -517.567042
v -2.545599 -6.443196 -526.161523
v 10.406899 -5.604596 -521.848112
v -2.392800 -6.493696 -526.421229
v -2.392800 6.059000 -527.011926
v -2.545599 6.059000 -527.271631
v -2.779600 6.059000 -527.464440
v -3.066700 6.059000 -527.566919
v -3.372200 6.059000 -527.566919
v -3.659299 6.059000 -527.464440
v -3.893300 6.059000 -527.271631
v -4.046000 6.059000 -527.011926
v -4.099099 6.059000 -526.716640
v -4.046000 6.059000 -526.421229
v -3.893300 6.059000 -526.161523
v -3.659299 6.059000 -525.968837
v -3.372200 6.059000 -525.866235
v -3.066700 6.059000 -525.866235
v -2.779600 6.059000 -525.968837
v -2.545599 6.059000 -526.161523
v -2.392800 6.059000 -526.421229
v -2.339799 6.059000 -526.716640
v 9.037800 -60.997000 -528.153896
v 8.298601 -60.997000 -532.346216
v 11.289301 -8.568096 -531.743435
v 12.220401 -7.740700 -526.527797
v 6.170198 -60.997000 -536.032800
v 8.608199 -9.295596 -536.329798
v 2.909200 -60.997000 -538.769008
v 4.500498 -9.835600 -539.734036
v -9.348000 -60.997000 -538.769008
v -10.939400 -9.835600 -539.734036
v -12.609000 -60.997000 -536.032800
v -15.046998 -9.295596 -536.329798
v -14.737498 -60.997000 -532.346216
v -17.728100 -8.568096 -531.743435
v -15.476698 -60.997000 -528.153896
v -18.659298 -7.740700 -526.527797
v -14.737498 -60.997000 -523.961694
v -17.728100 -6.913408 -521.312342
v -12.609000 -60.997000 -520.275114
v -15.046998 -6.185908 -516.725918
v -9.348098 -60.997000 -517.538904
v -10.939400 -5.645904 -513.321744
v 2.909200 -60.997000 -517.538904
v 4.500498 -5.645904 -513.321744
v 6.170198 -60.997000 -520.275114
v 8.608199 -6.185908 -516.725854
v 8.298601 -60.997000 -523.961694
v 11.289301 -6.913408 -521.312342
# 90 normals
vn 0.126778 -0.680034 -0.722090
vn -0.126778 -0.680034 -0.722090
vn -0.153787 0.345022 -0.925838
vn 0.153787 0.345022 -0.925838
vn -0.124397 -0.699933 0.703229
vn 0.124397 -0.699933 0.703229
vn 0.170390 0.281328 0.944394
vn -0.170390 0.281328 0.944394
vn -0.057224 0.865074 -0.498230
vn 0.057224 0.865074 -0.498230
vn 0.097082 0.918025 0.384118
vn -0.097082 0.918025 0.384118
vn 0.476378 0.863334 -0.166117
vn 0.408777 0.855918 -0.316426
vn 0.594214 0.712782 -0.372429
vn 0.661692 0.733138 -0.156717
vn 0.299487 0.856009 -0.421016
vn 0.465116 0.696698 -0.546084
vn 0.176311 0.860892 -0.477294
vn 0.294329 0.685833 -0.665476
vn 0.100562 0.680431 -0.725783
vn -0.100562 0.680431 -0.725783
vn -0.176311 0.860892 -0.477294
vn -0.294329 0.685833 -0.665476
vn -0.299487 0.856009 -0.421016
vn -0.465116 0.696698 -0.546084
vn -0.408777 0.855918 -0.316426
vn -0.594214 0.712782 -0.372429
vn -0.476378 0.863334 -0.166117
vn -0.661692 0.733138 -0.156809
vn -0.479491 0.877434 0.008820
vn -0.649484 0.756119 0.078771
vn -0.409998 0.894494 0.178234
vn -0.549319 0.778795 0.302692
vn -0.275530 0.909388 0.311298
vn -0.368217 0.796893 0.478728
vn -0.129677 0.807026 0.575993
vn 0.129677 0.807026 0.575993
vn 0.275530 0.909388 0.311298
vn 0.368217 0.796893 0.478820
vn 0.409998 0.894494 0.178234
vn 0.549411 0.778795 0.302692
vn 0.479491 0.877434 0.008820
vn 0.649484 0.756119 0.078771
vn 0.696484 0.669597 -0.257920
vn 0.564518 0.669871 -0.482085
vn 0.366172 0.670237 -0.645334
vn 0.126534 0.670512 -0.730819
vn -0.126534 0.670634 -0.730819
vn -0.366081 0.670329 -0.645334
vn -0.564518 0.669932 -0.482085
vn -0.696484 0.669474 -0.257920
vn -0.742813 0.669383 0.000000
vn -0.696484 0.669597 0.257828
vn -0.564518 0.669932 0.482085
vn -0.366172 0.670329 0.645334
vn -0.126625 0.670512 0.730819
vn 0.126534 0.670634 0.730819
vn 0.366172 0.670329 0.645334
vn 0.564518 0.669871 0.482085
vn 0.696484 0.669474 0.257920
vn 0.742813 0.669383 0.000000
vn 0.722090 -0.691632 -0.002411
vn 0.680980 -0.688030 -0.250412
vn 0.884484 0.295337 -0.361076
vn 0.958799 0.282091 -0.033297
vn 0.557010 -0.684521 -0.470121
vn 0.704389 0.314289 -0.636391
vn 0.364524 -0.681652 -0.634286
vn 0.449338 0.333120 -0.828816
vn -0.364524 -0.681652 -0.634286
vn -0.449338 0.333120 -0.828816
vn -0.557010 -0.684521 -0.470121
vn -0.704389 0.314289 -0.636391
vn -0.680980 -0.688030 -0.250412
vn -0.884484 0.295337 -0.361076
vn -0.722090 -0.691632 -0.002411
vn -0.958799 0.282091 -0.033297
vn -0.676311 -0.694989 0.243820
vn -0.911982 0.276292 0.303394
vn -0.549991 -0.697430 0.459226
vn -0.748428 0.276292 0.602881
vn -0.358390 -0.699078 0.618690
vn -0.490081 0.278978 0.825795
vn 0.358390 -0.699078 0.618690
vn 0.490081 0.278978 0.825795
vn 0.549991 -0.697430 0.459226
vn 0.748428 0.276292 0.602881
vn 0.676311 -0.694989 0.243820
vn 0.911890 0.276292 0.303394
# 212 uv coords
vt 0.702402 0.235517
vt 0.695183 0.276453
vt 0.674401 0.312452
vt 0.642558 0.339170
vt 0.603497 0.353387
vt 0.561930 0.353387
vt 0.522870 0.339170
vt 0.491028 0.312452
vt 0.470243 0.276454
vt 0.463025 0.235519
vt 0.470243 0.194582
vt 0.491027 0.158584
vt 0.522869 0.131866
vt 0.561929 0.117647
vt 0.603497 0.117647
vt 0.642557 0.131865
vt 0.674400 0.158582
vt 0.695184 0.194581
vt 0.018342 0.941439
vt 0.016850 0.943976
vt 0.014565 0.945858
vt 0.011762 0.946859
vt 0.008778 0.946859
vt 0.005975 0.945858
vt 0.003690 0.943976
vt 0.002199 0.941439
vt 0.001681 0.938556
vt 0.002199 0.935671
vt 0.003690 0.933136
vt 0.005975 0.931254
vt 0.008778 0.930252
vt 0.011762 0.930252
vt 0.014565 0.931254
vt 0.016850 0.933136
vt 0.018342 0.935671
vt 0.018860 0.938556
vt 0.994266 0.873322
vt 0.997196 0.873884
vt 0.997197 0.997018
vt 0.994268 0.997018
vt 0.991324 0.872830
vt 0.991326 0.997018
vt 0.988362 0.872464
vt 0.988365 0.997018
vt 0.985382 0.872269
vt 0.985391 0.997018
vt 0.982398 0.872269
vt 0.982406 0.997018
vt 0.979427 0.872464
vt 0.979423 0.997018
vt 0.976467 0.872829
vt 0.976459 0.997017
vt 0.973520 0.873322
vt 0.973520 0.997017
vt 0.970588 0.873883
vt 0.970592 0.997017
vt 0.007557 0.002735
vt 0.010515 0.003100
vt 0.010517 0.124814
vt 0.007555 0.124814
vt 0.013493 0.003295
vt 0.013493 0.124814
vt 0.004616 0.002241
vt 0.004611 0.124814
vt 0.016477 0.003295
vt 0.016477 0.124814
vt 0.001684 0.001681
vt 0.001681 0.124814
vt 0.019452 0.003100
vt 0.019456 0.124814
vt 0.022411 0.002735
vt 0.022418 0.124814
vt 0.025354 0.002242
vt 0.025358 0.124814
vt 0.028287 0.001681
vt 0.028286 0.124814
vt 0.804430 0.383421
vt 0.829212 0.425862
vt 0.704422 0.471886
vt 0.702854 0.469286
vt 0.837978 0.474238
vt 0.704973 0.474826
vt 0.766658 0.351990
vt 0.700442 0.467341
vt 0.720448 0.335294
vt 0.697467 0.466301
vt 0.671315 0.335295
vt 0.694295 0.466301
vt 0.625105 0.351989
vt 0.691321 0.467342
vt 0.587333 0.383419
vt 0.688907 0.469288
vt 0.562548 0.425860
vt 0.687337 0.471889
vt 0.553781 0.474236
vt 0.686787 0.474829
vt 0.843280 0.052706
vt 0.817749 0.094590
vt 0.717375 0.007323
vt 0.719261 0.004645
vt 0.779572 0.125349
vt 0.714442 0.009379
vt 0.852922 0.004544
vt 0.719947 0.001681
vt 0.733321 0.141586
vt 0.710778 0.010505
vt 0.684304 0.141586
vt 0.706851 0.010505
vt 0.638055 0.125347
vt 0.703187 0.009379
vt 0.599879 0.094589
vt 0.700254 0.007322
vt 0.574347 0.052705
vt 0.698367 0.004645
vt 0.564706 0.004542
vt 0.697682 0.001681
vt 0.088406 0.006114
vt 0.129836 0.009565
vt 0.103361 0.545773
vt 0.052255 0.534427
vt 0.171336 0.011928
vt 0.155072 0.553959
vt 0.047072 0.001681
vt 0.001681 0.520900
vt 0.856362 0.001681
vt 0.897914 0.002869
vt 0.892520 0.547991
vt 0.840336 0.543718
vt 0.939486 0.002869
vt 0.944875 0.547991
vt 0.981038 0.001681
vt 0.997057 0.543718
vt 0.161344 0.454782
vt 0.202848 0.452418
vt 0.229322 0.988627
vt 0.177612 0.996812
vt 0.244282 0.448969
vt 0.280425 0.977283
vt 0.285619 0.444537
vt 0.330999 0.963758
vt 0.423762 0.004777
vt 0.465312 0.005390
vt 0.452064 0.505119
vt 0.399886 0.509629
vt 0.382210 0.003584
vt 0.347833 0.515249
vt 0.340670 0.001681
vt 0.295798 0.520945
vt 0.788986 0.480056
vt 0.830525 0.478151
vt 0.875399 0.997416
vt 0.823364 0.991720
vt 0.747432 0.481248
vt 0.771309 0.986100
vt 0.705882 0.481862
vt 0.719131 0.981591
vt 0.538764 0.497875
vt 0.580331 0.497479
vt 0.596465 0.997123
vt 0.544158 0.994811
vt 0.497193 0.497875
vt 0.491802 0.994811
vt 0.455625 0.497480
vt 0.439496 0.997124
vt 0.854622 0.717748
vt 0.896478 0.686304
vt 0.904922 0.700212
vt 0.864792 0.728645
vt 0.943605 0.663525
vt 0.949739 0.679943
vt 0.994065 0.649580
vt 0.997392 0.667764
vt 0.001681 0.979486
vt 0.053057 0.969424
vt 0.055122 0.988316
vt 0.006759 0.997262
vt 0.105382 0.968067
vt 0.104298 0.987041
vt 0.157210 0.975454
vt 0.153060 0.993469
vt 0.178443 0.001681
vt 0.228644 0.016531
vt 0.222214 0.032837
vt 0.174790 0.019802
vt 0.275352 0.040162
vt 0.266657 0.053914
vt 0.316632 0.072355
vt 0.306267 0.083067
vt 0.083627 0.899315
vt 0.133697 0.884033
vt 0.135571 0.895775
vt 0.088744 0.910818
vt 0.038937 0.926567
vt 0.047303 0.937318
vt 0.001681 0.963343
vt 0.013220 0.972774
vt 0.808533 0.212689
vt 0.844962 0.250287
vt 0.833214 0.259458
vt 0.799930 0.223251
vt 0.764459 0.184451
vt 0.759089 0.195837
vt 0.714738 0.168068
vt 0.712605 0.179766
vt 0.797069 0.140336
vt 0.847934 0.152727
vt 0.843621 0.163814
vt 0.795919 0.151831
vt 0.744761 0.142272
vt 0.746761 0.153650
vt 0.694958 0.158410
vt 0.700082 0.169146
# 74 polygons
usemtl wire_086086086
s 1
g Bougie3
f 1/161/1 2/157/2 3/160/3 4/162/4
f 5/126/5 6/129/6 7/130/7 8/127/8
f 4/209/4 3/205/3 9/208/9 10/210/10
f 8/174/8 7/177/7 11/178/11 12/175/12
f 13/95/13 14/93/14 15/94/15 16/96/16
f 14/93/14 17/91/17 18/92/18 15/94/15
f 17/91/17 19/89/19 20/90/20 18/92/18
f 19/89/19 10/87/10 21/88/21 20/90/20
f 10/87/10 9/85/9 22/86/22 21/88/21
f 9/85/9 23/83/23 24/84/24 22/86/22
f 23/83/23 25/77/25 26/80/26 24/84/24
f 25/77/25 27/78/27 28/79/28 26/80/26
f 27/78/27 29/81/29 30/82/30 28/79/28
f 29/103/29 31/97/31 32/100/32 30/104/30
f 31/97/31 33/98/33 34/99/34 32/100/32
f 33/98/33 35/101/35 36/102/36 34/99/34
f 35/101/35 12/105/12 37/106/37 36/102/36
f 12/105/12 11/107/11 38/108/38 37/106/37
f 11/107/11 39/109/39 40/110/40 38/108/38
f 39/109/39 41/111/41 42/112/42 40/110/40
f 41/111/41 43/113/43 44/114/44 42/112/42
f 43/113/43 13/115/13 16/116/16 44/114/44
f 45/19/45 46/20/46 47/21/47 48/22/48 49/23/49 50/24/50 51/25/51 52/26/52 53/27/53 54/28/54 55/29/55 56/30/56 57/31/57 58/32/58 59/33/59 60/34/60 61/35/61 62/36/62
s 2
f 16/55/16 15/53/15 45/54/45 62/56/62
f 15/53/15 18/51/18 46/52/46 45/54/45
f 18/51/18 20/49/20 47/50/47 46/52/46
f 20/49/20 21/47/21 48/48/48 47/50/47
f 21/47/21 22/45/22 49/46/49 48/48/48
f 22/45/22 24/43/24 50/44/50 49/46/49
f 24/43/24 26/41/26 51/42/51 50/44/50
f 26/41/26 28/37/28 52/40/52 51/42/51
f 28/37/28 30/38/30 53/39/53 52/40/52
f 30/67/30 32/63/32 54/64/54 53/68/53
f 32/63/32 34/57/34 55/60/55 54/64/54
f 34/57/34 36/58/36 56/59/56 55/60/55
f 36/58/36 37/61/37 57/62/57 56/59/56
f 37/61/37 38/65/38 58/66/58 57/62/57
f 38/65/38 40/69/40 59/70/59 58/66/58
f 40/69/40 42/71/42 60/72/60 59/70/59
f 42/71/42 44/73/44 61/74/61 60/72/60
f 44/73/44 16/75/16 62/76/62 61/74/61
s 1
f 63/147/63 64/145/64 65/146/65 66/148/66
f 64/145/64 67/141/67 68/144/68 65/146/65
f 67/141/67 69/142/69 70/143/70 68/144/68
f 69/163/69 1/161/1 4/162/4 70/164/70
f 2/157/2 71/158/71 72/159/72 3/160/3
f 71/155/71 73/153/73 74/154/74 72/156/72
f 73/153/73 75/149/75 76/152/76 74/154/74
f 75/149/75 77/150/77 78/151/78 76/152/76
f 77/123/77 79/117/79 80/120/80 78/124/78
f 79/117/79 81/118/81 82/119/82 80/120/80
f 81/118/81 83/121/83 84/122/84 82/119/82
f 83/125/83 5/126/5 8/127/8 84/128/84
f 6/129/6 85/131/85 86/132/86 7/130/7
f 85/133/85 87/134/87 88/135/88 86/136/86
f 87/134/87 89/137/89 90/138/90 88/135/88
f 89/137/89 63/139/63 66/140/66 90/138/90
f 66/195/66 65/193/65 14/194/14 13/196/13
f 65/193/65 68/189/68 17/192/17 14/194/14
f 68/189/68 70/190/70 19/191/19 17/192/17
f 70/211/70 4/209/4 10/210/10 19/212/19
f 3/205/3 72/206/72 23/207/23 9/208/9
f 72/203/72 74/201/74 25/202/25 23/204/23
f 74/201/74 76/197/76 27/200/27 25/202/25
f 76/197/76 78/198/78 29/199/29 27/200/27
f 78/165/78 80/166/80 31/167/31 29/168/29
f 80/166/80 82/169/82 33/170/33 31/167/31
f 82/169/82 84/171/84 35/172/35 33/170/33
f 84/173/84 8/174/8 12/175/12 35/176/35
f 7/177/7 86/179/86 39/180/39 11/178/11
f 86/181/86 88/182/88 41/183/41 39/184/39
f 88/182/88 90/185/90 43/186/43 41/183/41
f 90/185/90 66/187/66 13/188/13 43/186/43
s off
f 63/1/63 89/2/89 87/3/87 85/4/85 6/5/6 5/6/5 83/7/83 81/8/81 79/9/79 77/10/77 75/11/75 73/12/73 71/13/71 2/14/2 1/15/1 69/16/69 67/17/67 64/18/64
# totals: 90 212 90 74
