# author: headus 3D tools
#  using: ply2obj v1.8
#   from: uvlayout v2.09.04
mtllib Bougie5.mtl
# 126 vertices
v 9.038000 -60.997000 -435.397000
v 8.298801 -60.997000 -439.589200
v 8.298801 -42.811602 -437.046902
v 9.038000 -42.811602 -432.854703
v 6.170401 -60.997000 -443.275784
v 6.170401 -42.811602 -440.733487
v 2.909400 -60.997000 -446.012081
v 2.909400 -42.811602 -443.469785
v -1.090800 -60.997000 -447.467982
v -1.090800 -42.811602 -444.925687
v -5.347699 -60.997000 -447.467982
v -5.347699 -42.811602 -444.925687
v -9.347794 -60.997000 -446.012081
v -9.347794 -42.811602 -443.469785
v -12.608796 -60.997000 -443.275784
v -12.608796 -42.811602 -440.733487
v -14.737300 -60.997000 -439.589200
v -14.737300 -42.811602 -437.046902
v -15.476500 -60.997000 -435.397000
v -15.476500 -42.811602 -432.854703
v -14.737300 -60.997000 -431.204800
v -14.737300 -42.811602 -428.662503
v -12.608796 -60.997000 -427.518186
v -12.608796 -42.811602 -424.975890
v -9.347902 -60.997000 -424.781889
v -9.347902 -42.811602 -422.239592
v -5.347699 -60.997000 -423.325985
v -5.347699 -42.811602 -420.783688
v -1.090800 -60.997000 -423.325985
v -1.090800 -42.811602 -420.783688
v 2.909400 -60.997000 -424.781889
v 2.909400 -42.811602 -422.239592
v 6.170401 -60.997000 -427.518186
v 6.170401 -42.811602 -424.975890
v 8.298801 -60.997000 -431.204800
v 8.298801 -42.811602 -428.662503
v -5.409398 -26.288600 -444.939175
v -1.029000 -26.288600 -444.939175
v -1.029000 -25.078600 -420.126097
v -5.409398 -25.078600 -420.126097
v -5.900300 -10.122908 -448.788388
v -0.538100 -10.122908 -448.788388
v -0.538100 -5.358600 -418.753383
v -5.900300 -5.358600 -418.753383
v -5.737300 -9.276604 -447.977597
v -0.701199 -9.276604 -447.977597
v -0.701199 -3.825700 -419.941586
v -5.737300 -3.825700 -419.941586
v 11.281599 -6.551100 -433.959592
v 10.407099 -7.497700 -438.827998
v -2.392600 -6.608600 -434.254880
v -2.339600 -6.551100 -433.959592
v 7.889000 -8.329996 -443.109187
v -2.545399 -6.659100 -434.514676
v 4.031200 -8.947804 -446.286800
v -2.779398 -6.696500 -434.707395
v -3.066500 -6.716508 -434.809995
v -3.372000 -6.716508 -434.809995
v -10.469598 -8.947804 -446.286800
v -3.659100 -6.696500 -434.707395
v -14.327504 -8.329996 -443.109187
v -3.893100 -6.659008 -434.514676
v -16.845500 -7.497700 -438.827998
v -4.045800 -6.608600 -434.254880
v -17.719996 -6.551100 -433.959592
v -4.098900 -6.551100 -433.959592
v -16.845500 -5.604596 -429.091183
v -4.045800 -6.493696 -433.664305
v -14.327504 -4.772300 -424.809995
v -3.893100 -6.443196 -433.404477
v -10.469598 -4.154408 -421.632382
v -3.659100 -6.405708 -433.211789
v -3.372000 -6.385800 -433.109190
v -3.066500 -6.385800 -433.109190
v 4.031200 -4.154408 -421.632382
v -2.779398 -6.405708 -433.211789
v 7.889000 -4.772300 -424.809995
v -2.545399 -6.443196 -433.404477
v 10.407099 -5.604596 -429.091183
v -2.392600 -6.493696 -433.664305
v -2.392600 6.059000 -434.254880
v -2.545399 6.059000 -434.514676
v -2.779398 6.059000 -434.707395
v -3.066500 6.059000 -434.809995
v -3.372000 6.059000 -434.809995
v -3.659100 6.059000 -434.707395
v -3.893100 6.059000 -434.514676
v -4.045800 6.059000 -434.254880
v -4.098900 6.059000 -433.959592
v -4.045800 6.059000 -433.664305
v -3.893100 6.059000 -433.404477
v -3.659100 6.059000 -433.211789
v -3.372000 6.059000 -433.109190
v -3.066500 6.059000 -433.109190
v -2.779398 6.059000 -433.211789
v -2.545399 6.059000 -433.404477
v -2.392600 6.059000 -433.664305
v -2.339600 6.059000 -433.959592
v 8.633001 -25.893704 -436.841397
v 9.393698 -25.683596 -432.532683
v 6.442800 -26.078500 -440.630489
v 3.087200 -26.215600 -443.442776
v -9.525700 -26.215700 -443.442776
v -12.881296 -26.078500 -440.630489
v -15.071500 -25.893704 -436.841397
v -15.832100 -25.683596 -432.532683
v -15.071500 -25.473500 -428.223876
v -12.881296 -25.288800 -424.434903
v -9.525700 -25.151604 -421.622495
v 3.087200 -25.151604 -421.622495
v 6.442800 -25.288800 -424.434903
v 8.633001 -25.473500 -428.223876
v 11.289500 -8.568096 -438.986386
v 12.220600 -7.740700 -433.770904
v 8.608401 -9.295596 -443.572903
v 4.500700 -9.835600 -446.977078
v -10.939200 -9.835600 -446.977078
v -15.046798 -9.295596 -443.572903
v -17.727900 -8.568096 -438.986386
v -18.659100 -7.740700 -433.770904
v -17.727900 -6.913408 -428.555387
v -15.046798 -6.185908 -423.968900
v -10.939200 -5.645904 -420.564694
v 4.500700 -5.645904 -420.564694
v 8.608401 -6.185908 -423.968900
v 11.289500 -6.913408 -428.555297
# 126 normals
vn 0.742935 -0.669200 -0.011323
vn 0.709028 -0.651590 -0.269517
vn 0.941616 0.015779 -0.336019
vn 0.999878 -0.011323 0.006531
vn 0.585271 -0.636086 -0.502716
vn 0.768693 0.040011 -0.638284
vn 0.385399 -0.624580 -0.679271
vn 0.501953 0.058323 -0.862876
vn 0.134316 -0.618476 -0.774126
vn 0.174327 0.068089 -0.982299
vn -0.134316 -0.618476 -0.774126
vn -0.174327 0.068089 -0.982299
vn -0.385399 -0.624580 -0.679271
vn -0.501953 0.058323 -0.862876
vn -0.585271 -0.636086 -0.502716
vn -0.768693 0.040011 -0.638284
vn -0.709028 -0.651590 -0.269517
vn -0.941616 0.015779 -0.336019
vn -0.742935 -0.669200 -0.011323
vn -0.999878 -0.011323 0.006531
vn -0.686596 -0.686779 0.238693
vn -0.936886 -0.038058 0.347586
vn -0.550815 -0.701917 0.451169
vn -0.761399 -0.060978 0.645334
vn -0.355185 -0.713117 0.604224
vn -0.495697 -0.077611 0.864982
vn -0.122475 -0.719038 0.683910
vn -0.171855 -0.086370 0.981231
vn 0.122475 -0.719038 0.683910
vn 0.171855 -0.086370 0.981231
vn 0.355185 -0.713117 0.604224
vn 0.495697 -0.077611 0.864982
vn 0.550815 -0.701917 0.451169
vn 0.761399 -0.060978 0.645334
vn 0.686596 -0.686779 0.238693
vn 0.936886 -0.038058 0.347586
vn -0.173930 -0.118934 -0.977416
vn 0.173930 -0.118934 -0.977416
vn 0.171855 -0.055027 0.983581
vn -0.171855 -0.055027 0.983581
vn -0.160624 0.245895 -0.955838
vn 0.160624 0.245895 -0.955838
vn 0.171184 0.285876 0.942776
vn -0.171184 0.285876 0.942776
vn -0.057224 0.865074 -0.498230
vn 0.057224 0.865074 -0.498230
vn 0.097082 0.918025 0.384118
vn -0.097082 0.918025 0.384118
vn 0.476378 0.863334 -0.166117
vn 0.408777 0.855918 -0.316426
vn 0.594214 0.712782 -0.372581
vn 0.661692 0.733138 -0.156717
vn 0.299487 0.856009 -0.421016
vn 0.465116 0.696698 -0.546084
vn 0.176250 0.860892 -0.477294
vn 0.294482 0.685833 -0.665476
vn 0.100562 0.680431 -0.725783
vn -0.100562 0.680431 -0.725783
vn -0.176250 0.860892 -0.477294
vn -0.294329 0.685833 -0.665476
vn -0.299487 0.856009 -0.421016
vn -0.465116 0.696698 -0.546084
vn -0.408777 0.855918 -0.316426
vn -0.594214 0.712782 -0.372429
vn -0.476378 0.863334 -0.166117
vn -0.661692 0.733138 -0.156809
vn -0.479491 0.877434 0.008820
vn -0.649484 0.756119 0.078771
vn -0.409998 0.894494 0.178234
vn -0.549319 0.778795 0.302692
vn -0.275530 0.909388 0.311298
vn -0.368217 0.796893 0.478728
vn -0.129677 0.807026 0.575993
vn 0.129677 0.807026 0.575993
vn 0.275530 0.909388 0.311298
vn 0.368217 0.796893 0.478820
vn 0.409998 0.894494 0.178234
vn 0.549411 0.778795 0.302692
vn 0.479491 0.877434 0.008820
vn 0.649484 0.756211 0.078771
vn 0.696484 0.669597 -0.257920
vn 0.564518 0.669871 -0.482085
vn 0.366172 0.670329 -0.645334
vn 0.126625 0.670512 -0.730819
vn -0.126534 0.670634 -0.730819
vn -0.366081 0.670329 -0.645211
vn -0.564518 0.669932 -0.482085
vn -0.696484 0.669474 -0.257920
vn -0.742813 0.669383 0.000000
vn -0.696484 0.669474 0.257920
vn -0.564518 0.669871 0.482085
vn -0.366172 0.670329 0.645334
vn -0.126625 0.670512 0.730819
vn 0.126534 0.670634 0.730819
vn 0.366172 0.670329 0.645334
vn 0.564518 0.669871 0.482085
vn 0.696484 0.669474 0.257920
vn 0.742813 0.669383 0.000000
vn 0.937923 -0.099615 -0.332021
vn 0.995971 -0.088781 0.009125
vn 0.766038 -0.108924 -0.633431
vn 0.500610 -0.115516 -0.857810
vn -0.500610 -0.115516 -0.857810
vn -0.766038 -0.108924 -0.633431
vn -0.937923 -0.099615 -0.332021
vn -0.995971 -0.088781 0.009125
vn -0.933834 -0.077428 0.348837
vn -0.759812 -0.067112 0.646493
vn -0.495208 -0.059299 0.866691
vn 0.495208 -0.059299 0.866691
vn 0.759812 -0.067112 0.646493
vn 0.933834 -0.077428 0.348837
vn 0.901972 0.232283 -0.363883
vn 0.970732 0.237594 -0.032320
vn 0.724928 0.234420 -0.647592
vn 0.466673 0.240737 -0.850974
vn -0.466673 0.240737 -0.850974
vn -0.724928 0.234420 -0.647592
vn -0.901972 0.232283 -0.363883
vn -0.970732 0.237594 -0.032320
vn -0.919276 0.249527 0.304370
vn -0.752731 0.264573 0.602698
vn -0.492431 0.278093 0.824635
vn 0.492431 0.278093 0.824635
vn 0.752731 0.264573 0.602698
vn 0.919276 0.249527 0.304370
# 308 uv coords
vt 0.582712 0.733045
vt 0.631549 0.732887
vt 0.630402 0.923276
vt 0.580186 0.925011
vt 0.533879 0.733062
vt 0.529981 0.927149
vt 0.485052 0.732831
vt 0.479774 0.929321
vt 0.211568 0.167949
vt 0.260402 0.167987
vt 0.285500 0.377128
vt 0.236666 0.377090
vt 0.309215 0.166510
vt 0.334307 0.375652
vt 0.162747 0.167099
vt 0.187838 0.376241
vt 0.266977 0.562596
vt 0.315802 0.563443
vt 0.340898 0.772585
vt 0.292073 0.771738
vt 0.218143 0.562559
vt 0.243239 0.771700
vt 0.169332 0.564039
vt 0.194429 0.773181
vt 0.997116 0.140352
vt 0.988637 0.188443
vt 0.964221 0.230734
vt 0.926813 0.262124
vt 0.880924 0.278825
vt 0.832091 0.278825
vt 0.786203 0.262125
vt 0.748796 0.230736
vt 0.724379 0.188444
vt 0.715899 0.140354
vt 0.724378 0.092262
vt 0.748794 0.049973
vt 0.786203 0.018583
vt 0.832090 0.001881
vt 0.880923 0.001881
vt 0.926811 0.018582
vt 0.964220 0.049971
vt 0.988636 0.092261
vt 0.378037 0.004194
vt 0.426870 0.004195
vt 0.426868 0.214837
vt 0.378035 0.214836
vt 0.475646 0.001881
vt 0.475647 0.212524
vt 0.329257 0.001883
vt 0.329258 0.212525
vt 0.582005 0.002764
vt 0.630835 0.001916
vt 0.605736 0.211058
vt 0.556915 0.211906
vt 0.679669 0.001881
vt 0.654567 0.211023
vt 0.728478 0.003362
vt 0.703381 0.212504
vt 0.329257 0.785944
vt 0.378036 0.783632
vt 0.378035 0.994273
vt 0.329257 0.996585
vt 0.426870 0.783632
vt 0.426869 0.994274
vt 0.475647 0.785944
vt 0.475646 0.996586
vt 0.440537 0.219697
vt 0.489368 0.219225
vt 0.488336 0.415783
vt 0.438170 0.418677
vt 0.391704 0.219714
vt 0.387964 0.420811
vt 0.342876 0.219191
vt 0.337723 0.421846
vt 0.947761 0.552710
vt 0.996587 0.551864
vt 0.971483 0.761006
vt 0.922658 0.761850
vt 0.898921 0.552746
vt 0.873830 0.761888
vt 0.850106 0.551270
vt 0.825024 0.760413
vt 0.660627 0.273754
vt 0.709453 0.274386
vt 0.708744 0.477950
vt 0.658513 0.476464
vt 0.758283 0.274385
vt 0.758997 0.477948
vt 0.807113 0.273756
vt 0.809225 0.476465
vt 0.718631 0.580941
vt 0.767463 0.580955
vt 0.771205 0.782054
vt 0.720998 0.779921
vt 0.816290 0.580433
vt 0.821446 0.783087
vt 0.669802 0.580470
vt 0.670830 0.777028
vt 0.552123 0.216591
vt 0.600951 0.216601
vt 0.604855 0.410688
vt 0.554646 0.408557
vt 0.649781 0.216368
vt 0.655060 0.412858
vt 0.503292 0.216431
vt 0.504424 0.406818
vt 0.377380 0.426179
vt 0.426216 0.426176
vt 0.426922 0.615719
vt 0.376676 0.615723
vt 0.475052 0.426152
vt 0.477163 0.616531
vt 0.328546 0.426158
vt 0.326434 0.616538
vt 0.498622 0.534338
vt 0.548768 0.537583
vt 0.543141 0.728212
vt 0.481656 0.726500
vt 0.599023 0.537583
vt 0.604648 0.728212
vt 0.649171 0.534337
vt 0.666135 0.726500
vt 0.705681 0.786173
vt 0.755878 0.788476
vt 0.748948 0.990929
vt 0.688030 0.982415
vt 0.806122 0.787869
vt 0.810189 0.996683
vt 0.655718 0.780809
vt 0.627469 0.971640
vt 0.868033 0.284231
vt 0.918236 0.281933
vt 0.935885 0.478174
vt 0.874972 0.486685
vt 0.968203 0.276575
vt 0.996442 0.467408
vt 0.817786 0.283625
vt 0.813735 0.492440
vt 0.893086 0.769546
vt 0.943289 0.771775
vt 0.934947 0.992224
vt 0.874018 0.983814
vt 0.993540 0.771687
vt 0.996319 0.996343
vt 0.843057 0.764817
vt 0.813735 0.971603
vt 0.018622 0.593605
vt 0.068829 0.595704
vt 0.063204 0.822470
vt 0.001881 0.817655
vt 0.119084 0.595703
vt 0.124711 0.822468
vt 0.169293 0.593603
vt 0.186030 0.817653
vt 0.105111 0.224857
vt 0.155142 0.220131
vt 0.184463 0.426916
vt 0.124182 0.439125
vt 0.054907 0.227085
vt 0.063255 0.447534
vt 0.004659 0.226995
vt 0.001881 0.451652
vt 0.021455 0.990565
vt 0.019703 0.993545
vt 0.017018 0.995756
vt 0.013724 0.996933
vt 0.010220 0.996933
vt 0.006927 0.995756
vt 0.004242 0.993545
vt 0.002491 0.990565
vt 0.001881 0.987178
vt 0.002491 0.983790
vt 0.004242 0.980809
vt 0.006927 0.978599
vt 0.010220 0.977422
vt 0.013724 0.977422
vt 0.017018 0.978599
vt 0.019703 0.980809
vt 0.021455 0.983790
vt 0.022063 0.987178
vt 0.486359 0.515618
vt 0.542996 0.491732
vt 0.548129 0.508472
vt 0.495501 0.532404
vt 0.603238 0.479774
vt 0.604574 0.495722
vt 0.664679 0.481299
vt 0.662396 0.495910
vt 0.935361 0.483537
vt 0.996778 0.486769
vt 0.993943 0.505675
vt 0.936187 0.504111
vt 0.874370 0.491395
vt 0.879027 0.512609
vt 0.815616 0.509577
vt 0.824010 0.530266
vt 0.103480 0.447233
vt 0.164511 0.440264
vt 0.164430 0.454236
vt 0.106896 0.460367
vt 0.225337 0.448287
vt 0.221762 0.462638
vt 0.282750 0.470149
vt 0.275379 0.484354
vt 0.815616 0.543713
vt 0.873727 0.523625
vt 0.876485 0.537324
vt 0.822138 0.556991
vt 0.935027 0.519285
vt 0.934149 0.532829
vt 0.995308 0.531361
vt 0.990834 0.544177
vt 0.001881 0.456278
vt 0.063311 0.456256
vt 0.061615 0.473682
vt 0.003784 0.472167
vt 0.123523 0.468119
vt 0.118117 0.486453
vt 0.180681 0.490666
vt 0.171368 0.509029
vt 0.063054 0.519285
vt 0.124405 0.523497
vt 0.121000 0.545562
vt 0.063391 0.541002
vt 0.184202 0.537885
vt 0.177178 0.559079
vt 0.001881 0.525634
vt 0.005815 0.545847
vt 0.295913 0.058548
vt 0.324909 0.108502
vt 0.178196 0.162270
vt 0.176424 0.159235
vt 0.251590 0.021530
vt 0.173695 0.156983
vt 0.197289 0.001881
vt 0.170333 0.155793
vt 0.139544 0.001943
vt 0.166741 0.155813
vt 0.085281 0.021694
vt 0.163355 0.157046
vt 0.041008 0.058764
vt 0.160590 0.159341
vt 0.012040 0.108720
vt 0.158779 0.162415
vt 0.001881 0.165569
vt 0.158136 0.165894
vt 0.011778 0.222474
vt 0.158729 0.169358
vt 0.497189 0.002119
vt 0.500728 0.001885
vt 0.500784 0.148439
vt 0.497247 0.148444
vt 0.504268 0.001881
vt 0.504319 0.148436
vt 0.493667 0.002553
vt 0.493728 0.148449
vt 0.507791 0.002108
vt 0.507834 0.148432
vt 0.490170 0.003136
vt 0.490231 0.148454
vt 0.511278 0.002536
vt 0.511316 0.148430
vt 0.486697 0.003800
vt 0.486756 0.148457
vt 0.483237 0.004462
vt 0.483291 0.148461
vt 0.479774 0.005043
vt 0.479826 0.148462
vt 0.445977 0.634055
vt 0.449434 0.634634
vt 0.449365 0.779950
vt 0.445908 0.779949
vt 0.452877 0.635295
vt 0.452807 0.779951
vt 0.456319 0.635955
vt 0.456251 0.779954
vt 0.459774 0.636536
vt 0.459712 0.779956
vt 0.463253 0.636968
vt 0.463190 0.779957
vt 0.466749 0.637199
vt 0.466690 0.779958
vt 0.470252 0.637199
vt 0.470197 0.779960
vt 0.473751 0.636973
vt 0.473695 0.779961
vt 0.477229 0.636544
vt 0.477171 0.779963
vt 0.075199 0.977046
vt 0.030877 0.940025
vt 0.150369 0.839343
vt 0.153097 0.841593
vt 0.001881 0.890069
vt 0.148597 0.836307
vt 0.129502 0.996696
vt 0.156458 0.842784
vt 0.187248 0.996634
vt 0.160051 0.842764
vt 0.241510 0.976883
vt 0.163436 0.841532
vt 0.285784 0.939812
vt 0.166201 0.839238
vt 0.314749 0.889858
vt 0.168010 0.836161
vt 0.324907 0.833011
vt 0.168653 0.832680
vt 0.315012 0.776106
vt 0.168059 0.829216
# 110 polygons
usemtl wire_086086086
s 1
g Bougie5
f 1/51/1 2/52/2 3/53/3 4/54/4
f 2/52/2 5/55/5 6/56/6 3/53/3
f 5/55/5 7/57/7 8/58/8 6/56/6
f 7/59/7 9/60/9 10/61/10 8/62/8
f 9/60/9 11/63/11 12/64/12 10/61/10
f 11/63/11 13/65/13 14/66/14 12/64/12
f 13/23/13 15/21/15 16/22/16 14/24/14
f 15/21/15 17/17/17 18/20/18 16/22/16
f 17/17/17 19/18/19 20/19/20 18/20/18
f 19/15/19 21/9/21 22/12/22 20/16/20
f 21/9/21 23/10/23 24/11/24 22/12/22
f 23/10/23 25/13/25 26/14/26 24/11/24
f 25/49/25 27/43/27 28/46/28 26/50/26
f 27/43/27 29/44/29 30/45/30 28/46/28
f 29/44/29 31/47/31 32/48/32 30/45/30
f 31/81/31 33/79/33 34/80/34 32/82/32
f 33/79/33 35/75/35 36/78/36 34/80/34
f 35/75/35 1/76/1 4/77/4 36/78/36
f 10/107/10 12/108/12 37/109/37 38/110/38
f 28/84/28 30/87/30 39/88/39 40/85/40
f 38/116/38 37/119/37 41/120/41 42/117/42
f 40/148/40 39/151/39 43/152/43 44/149/44
f 42/209/42 41/211/41 45/212/45 46/210/46
f 44/222/44 43/225/43 47/226/47 48/223/48
f 49/245/49 50/243/50 51/244/51 52/246/52
f 50/243/50 53/241/53 54/242/54 51/244/51
f 53/241/53 55/239/55 56/240/56 54/242/54
f 55/239/55 46/237/46 57/238/57 56/240/56
f 46/237/46 45/235/45 58/236/58 57/238/57
f 45/235/45 59/233/59 60/234/60 58/236/58
f 59/233/59 61/229/61 62/232/62 60/234/60
f 61/229/61 63/230/63 64/231/64 62/232/62
f 63/307/63 65/305/65 66/306/66 64/308/64
f 65/305/65 67/303/67 68/304/68 66/306/66
f 67/303/67 69/301/69 70/302/70 68/304/68
f 69/301/69 71/299/71 72/300/72 70/302/70
f 71/299/71 48/297/48 73/298/73 72/300/72
f 48/297/48 47/295/47 74/296/74 73/298/73
f 47/295/47 75/289/75 76/292/76 74/296/74
f 75/289/75 77/290/77 78/291/78 76/292/76
f 77/290/77 79/293/79 80/294/80 78/291/78
f 79/247/79 49/245/49 52/246/52 80/248/80
s off
f 81/163/81 82/164/82 83/165/83 84/166/84 85/167/85 86/168/86 87/169/87 88/170/88 89/171/89 90/172/90 91/173/91 92/174/92 93/175/93 94/176/94 95/177/95 96/178/96 97/179/97 98/180/98
s 1
f 4/7/4 3/5/3 99/6/99 100/8/100
f 3/5/3 6/1/6 101/4/101 99/6/99
f 6/1/6 8/2/8 102/3/102 101/4/101
f 8/113/8 10/107/10 38/110/38 102/114/102
f 12/108/12 14/111/14 103/112/103 37/109/37
f 14/105/14 16/99/16 104/102/104 103/106/103
f 16/99/16 18/100/18 105/101/105 104/102/104
f 18/100/18 20/103/20 106/104/106 105/101/105
f 20/97/20 22/91/22 107/94/107 106/98/106
f 22/91/22 24/92/24 108/93/108 107/94/107
f 24/92/24 26/95/26 109/96/109 108/93/108
f 26/83/26 28/84/28 40/85/40 109/86/109
f 30/87/30 32/89/32 110/90/110 39/88/39
f 32/73/32 34/71/34 111/72/111 110/74/110
f 34/71/34 36/67/36 112/70/112 111/72/111
f 36/67/36 4/68/4 100/69/100 112/70/112
f 100/137/100 99/131/99 113/134/113 114/138/114
f 99/131/99 101/132/101 115/133/115 113/134/113
f 101/132/101 102/135/102 116/136/116 115/133/115
f 102/115/102 38/116/38 42/117/42 116/118/116
f 37/119/37 103/121/103 117/122/117 41/120/41
f 103/129/103 104/123/104 118/126/118 117/130/117
f 104/123/104 105/124/105 119/125/119 118/126/118
f 105/124/105 106/127/106 120/128/120 119/125/119
f 106/145/106 107/139/107 121/142/121 120/146/120
f 107/139/107 108/140/108 122/141/122 121/142/121
f 108/140/108 109/143/109 123/144/123 122/141/122
f 109/147/109 40/148/40 44/149/44 123/150/123
f 39/151/39 110/153/110 124/154/124 43/152/43
f 110/161/110 111/159/111 125/160/125 124/162/124
f 111/159/111 112/155/112 126/158/126 125/160/125
f 112/155/112 100/156/100 114/157/114 126/158/126
f 114/182/114 113/185/113 50/186/50 49/183/49
f 113/185/113 115/187/115 53/188/53 50/186/50
f 115/205/115 116/206/116 55/207/55 53/208/53
f 116/206/116 42/209/42 46/210/46 55/207/55
f 41/197/41 117/198/117 59/199/59 45/200/45
f 117/198/117 118/201/118 61/202/61 59/199/59
f 118/201/118 119/203/119 63/204/63 61/202/61
f 119/213/119 120/214/120 65/215/65 63/216/63
f 120/214/120 121/217/121 67/218/67 65/215/65
f 121/217/121 122/219/122 69/220/69 67/218/67
f 122/227/122 123/221/123 71/224/71 69/228/69
f 123/221/123 44/222/44 48/223/48 71/224/71
f 43/195/43 124/193/124 75/194/75 47/196/47
f 124/193/124 125/189/125 77/192/77 75/194/75
f 125/189/125 126/190/126 79/191/79 77/192/77
f 126/181/126 114/182/114 49/183/49 79/184/79
s off
f 52/263/52 51/259/51 81/260/81 98/264/98
f 51/259/51 54/255/54 82/256/82 81/260/81
f 54/255/54 56/249/56 83/252/83 82/256/82
f 56/249/56 57/250/57 84/251/84 83/252/83
f 57/250/57 58/253/58 85/254/85 84/251/84
f 58/253/58 60/257/60 86/258/86 85/254/85
f 60/257/60 62/261/62 87/262/87 86/258/86
f 62/269/62 64/270/64 88/271/88 87/272/87
f 64/270/64 66/273/66 89/274/89 88/271/88
f 66/273/66 68/275/68 90/276/90 89/274/89
f 68/275/68 70/277/70 91/278/91 90/276/90
f 70/277/70 72/279/72 92/280/92 91/278/91
f 72/279/72 73/281/73 93/282/93 92/280/92
f 73/281/73 74/283/74 94/284/94 93/282/93
f 74/283/74 76/285/76 95/286/95 94/284/94
f 76/285/76 78/287/78 96/288/96 95/286/95
f 78/267/78 80/265/80 97/266/97 96/268/96
f 80/265/80 52/263/52 98/264/98 97/266/97
f 1/25/1 35/26/35 33/27/33 31/28/31 29/29/29 27/30/27 25/31/25 23/32/23 21/33/21 19/34/19 17/35/17 15/36/15 13/37/13 11/38/11 9/39/9 7/40/7 5/41/5 2/42/2
# totals: 126 308 126 110
