# author: headus 3D tools
#  using: ply2obj v1.8
#   from: uvlayout v2.09.04
mtllib CoupelleBasse.mtl
# 55 vertices
v 17.905000 -58.665000 -707.385000
v 16.631099 -58.665000 -714.609790
v 17.209100 -53.290100 -714.820179
v 18.520199 -53.290100 -707.385000
v 12.963000 -58.665000 -720.963186
v 13.434200 -53.290100 -721.358570
v 7.343102 -58.665000 -725.678760
v 7.650702 -53.290100 -726.211600
v 0.449300 -58.665000 -728.187856
v 0.556100 -53.290100 -728.793810
v -6.886996 -58.665000 -728.187856
v -6.993796 -53.290100 -728.793810
v -13.780798 -58.665000 -725.678760
v -14.088298 -53.290100 -726.211474
v -19.400592 -58.665000 -720.963186
v -19.871904 -53.290100 -721.358570
v -23.068796 -58.665000 -714.609790
v -23.646796 -53.290100 -714.820179
v -24.342704 -58.665000 -707.385000
v -24.957800 -53.290100 -707.385000
v -23.068796 -58.665000 -700.160210
v -23.646796 -53.290100 -699.949882
v -19.400592 -58.665000 -693.806814
v -19.871904 -53.290100 -693.411367
v -13.780798 -58.665000 -689.091298
v -14.088298 -53.290100 -688.558462
v -6.886996 -58.665000 -686.582084
v -6.993796 -53.290100 -685.976308
v 0.449300 -58.665000 -686.582084
v 0.556100 -53.290100 -685.976308
v 7.343102 -58.665000 -689.091298
v 7.650702 -53.290100 -688.558462
v 12.963000 -58.665000 -693.806814
v 13.434200 -53.290100 -693.411367
v 16.631099 -58.665000 -700.160210
v 17.209100 -53.290100 -699.949760
v -3.218796 -53.290100 -707.047903
v 15.689601 -60.996699 -707.385000
v 14.549201 -60.996699 -700.917961
v 11.265802 -60.996699 -695.230888
v 6.235400 -60.996699 -691.009756
v 0.064598 -60.996699 -688.763910
v -6.502200 -60.996699 -688.763910
v -12.672996 -60.996699 -691.009756
v -17.703500 -60.996699 -695.231010
v -20.986900 -60.996699 -700.917961
v -22.127200 -60.996699 -707.385000
v -20.986900 -60.996699 -713.852100
v -17.703500 -60.996699 -719.539112
v -12.672996 -60.996699 -723.760062
v -6.502200 -60.996699 -726.006154
v 0.064598 -60.996699 -726.006154
v 6.235400 -60.996699 -723.760062
v 11.265802 -60.996699 -719.539112
v 14.549201 -60.996699 -713.852100
# 55 normals
vn 0.911982 -0.410151 0.000000
vn 0.856986 -0.410151 -0.311817
vn 0.731795 0.627236 -0.266374
vn 0.778795 0.627236 0.000000
vn 0.698590 -0.410151 -0.586126
vn 0.596533 0.627236 -0.500519
vn 0.455991 -0.410151 -0.789721
vn 0.389398 0.627236 -0.674419
vn 0.158335 -0.410151 -0.898096
vn 0.135171 0.627236 -0.766984
vn -0.158335 -0.410151 -0.898096
vn -0.135171 0.627236 -0.766984
vn -0.455991 -0.410151 -0.789721
vn -0.389398 0.627236 -0.674419
vn -0.698590 -0.410151 -0.586126
vn -0.596533 0.627236 -0.500519
vn -0.856986 -0.410151 -0.311817
vn -0.731795 0.627236 -0.266374
vn -0.911982 -0.410151 0.000000
vn -0.778795 0.627236 0.000000
vn -0.856986 -0.410151 0.311817
vn -0.731795 0.627236 0.266374
vn -0.698590 -0.410151 0.586126
vn -0.596533 0.627236 0.500519
vn -0.455991 -0.410151 0.789721
vn -0.389398 0.627236 0.674419
vn -0.158335 -0.410151 0.898096
vn -0.135171 0.627236 0.766984
vn 0.158335 -0.410151 0.898096
vn 0.135171 0.627236 0.766984
vn 0.455991 -0.410151 0.789721
vn 0.389398 0.627236 0.674419
vn 0.698590 -0.410151 0.586126
vn 0.596533 0.627236 0.500519
vn 0.856986 -0.410151 0.311817
vn 0.731795 0.627236 0.266374
vn 0.000000 1.000000 0.000000
vn 0.430110 -0.902735 0.000000
vn 0.404199 -0.902735 0.147012
vn 0.329427 -0.902735 0.276415
vn 0.215009 -0.902735 0.372429
vn 0.074681 -0.902735 0.423579
vn -0.074681 -0.902735 0.423579
vn -0.215009 -0.902735 0.372429
vn -0.329427 -0.902735 0.276415
vn -0.404199 -0.902735 0.147012
vn -0.430110 -0.902735 0.000000
vn -0.404199 -0.902735 -0.147012
vn -0.329427 -0.902735 -0.276415
vn -0.215009 -0.902735 -0.372429
vn -0.074681 -0.902735 -0.423579
vn 0.074681 -0.902735 -0.423579
vn 0.215009 -0.902735 -0.372429
vn 0.329427 -0.902735 -0.276415
vn 0.404199 -0.902735 -0.147012
# 136 uv coords
vt 0.996982 0.498697
vt 0.981542 0.586253
vt 0.937088 0.663250
vt 0.868982 0.720399
vt 0.785437 0.750805
vt 0.696529 0.750805
vt 0.612984 0.720398
vt 0.544877 0.663247
vt 0.500424 0.586252
vt 0.484986 0.498696
vt 0.500425 0.411139
vt 0.544878 0.334143
vt 0.612986 0.276996
vt 0.696531 0.246588
vt 0.785438 0.246588
vt 0.868984 0.276998
vt 0.937089 0.334144
vt 0.981542 0.411139
vt 0.019544 0.191072
vt 0.070638 0.102525
vt 0.148947 0.036796
vt 0.001820 0.291743
vt 0.296139 0.287101
vt 0.245020 0.001820
vt 0.347264 0.001822
vt 0.443332 0.036798
vt 0.521637 0.102523
vt 0.572729 0.191064
vt 0.590457 0.291729
vt 0.019546 0.807606
vt 0.001820 0.706942
vt 0.296144 0.702456
vt 0.070633 0.896151
vt 0.148943 0.961883
vt 0.245018 0.996866
vt 0.347263 0.996864
vt 0.443340 0.961891
vt 0.521643 0.896157
vt 0.572739 0.807615
vt 0.590460 0.706935
vt 0.893525 0.923781
vt 0.992787 0.919927
vt 0.997074 0.993047
vt 0.894946 0.997012
vt 0.794176 0.923782
vt 0.792754 0.997013
vt 0.694915 0.919928
vt 0.690628 0.993047
vt 0.098316 0.516478
vt 0.001820 0.493007
vt 0.017096 0.452231
vt 0.103498 0.473241
vt 0.197614 0.516478
vt 0.192431 0.473240
vt 0.294112 0.493006
vt 0.278834 0.452229
vt 0.996571 0.817846
vt 0.900073 0.841319
vt 0.894892 0.798082
vt 0.981293 0.777070
vt 0.800774 0.841316
vt 0.805958 0.798079
vt 0.704276 0.817847
vt 0.719555 0.777071
vt 0.893525 0.005673
vt 0.992788 0.001820
vt 0.997073 0.074939
vt 0.894947 0.078905
vt 0.794175 0.005676
vt 0.792755 0.078907
vt 0.694912 0.001822
vt 0.690628 0.074942
vt 0.694915 0.841674
vt 0.794177 0.845528
vt 0.792756 0.918759
vt 0.690628 0.914793
vt 0.893527 0.845527
vt 0.894948 0.918758
vt 0.992789 0.841676
vt 0.997075 0.914796
vt 0.098319 0.622026
vt 0.001820 0.598564
vt 0.017093 0.557785
vt 0.103499 0.578789
vt 0.197615 0.622024
vt 0.192434 0.578787
vt 0.294112 0.598558
vt 0.278836 0.557780
vt 0.800774 0.193464
vt 0.704276 0.169986
vt 0.719557 0.129208
vt 0.805956 0.150227
vt 0.900073 0.193460
vt 0.894889 0.150225
vt 0.996570 0.169992
vt 0.981292 0.129213
vt 0.006108 0.373976
vt 0.105369 0.377833
vt 0.103949 0.451064
vt 0.001820 0.447096
vt 0.204720 0.377830
vt 0.206140 0.451063
vt 0.303982 0.373978
vt 0.308267 0.447098
vt 0.996570 0.120853
vt 0.900072 0.144330
vt 0.894889 0.101093
vt 0.981290 0.080076
vt 0.800771 0.144327
vt 0.805956 0.101091
vt 0.704276 0.120850
vt 0.719557 0.080072
vt 0.204719 0.626246
vt 0.303980 0.622384
vt 0.308272 0.695504
vt 0.206145 0.699477
vt 0.105371 0.626249
vt 0.103949 0.699480
vt 0.006113 0.622386
vt 0.001820 0.695504
vt 0.006113 0.295726
vt 0.105373 0.299590
vt 0.103948 0.372821
vt 0.001820 0.368845
vt 0.204719 0.299594
vt 0.206145 0.372825
vt 0.303975 0.295723
vt 0.308276 0.368842
vt 0.098318 0.572899
vt 0.001820 0.549428
vt 0.017098 0.508650
vt 0.103500 0.529662
vt 0.197618 0.572898
vt 0.192432 0.529662
vt 0.294112 0.549421
vt 0.278834 0.508644
# 55 polygons
usemtl wire_086086086
s 1
g CoupellePlat
f 1/73/1 2/74/2 3/75/3 4/76/4
f 2/74/2 5/77/5 6/78/6 3/75/3
f 5/77/5 7/79/7 8/80/8 6/78/6
f 7/97/7 9/98/9 10/99/10 8/100/8
f 9/98/9 11/101/11 12/102/12 10/99/10
f 11/101/11 13/103/13 14/104/14 12/102/12
f 13/119/13 15/117/15 16/118/16 14/120/14
f 15/117/15 17/113/17 18/116/18 16/118/16
f 17/113/17 19/114/19 20/115/20 18/116/18
f 19/121/19 21/122/21 22/123/22 20/124/20
f 21/122/21 23/125/23 24/126/24 22/123/22
f 23/125/23 25/127/25 26/128/26 24/126/24
f 25/71/25 27/69/27 28/70/28 26/72/26
f 27/69/27 29/65/29 30/68/30 28/70/28
f 29/65/29 31/66/31 32/67/32 30/68/30
f 31/47/31 33/45/33 34/46/34 32/48/32
f 33/45/33 35/41/35 36/44/36 34/46/34
f 35/41/35 1/42/1 4/43/4 36/44/36
s 2
f 4/40/4 3/39/3 37/32/37
f 3/39/3 6/38/6 37/32/37
f 6/38/6 8/37/8 37/32/37
f 8/37/8 10/36/10 37/32/37
f 10/36/10 12/35/12 37/32/37
f 12/35/12 14/34/14 37/32/37
f 14/34/14 16/33/16 37/32/37
f 16/33/16 18/30/18 37/32/37
f 18/30/18 20/31/20 37/32/37
f 20/22/20 22/19/22 37/23/37
f 22/19/22 24/20/24 37/23/37
f 24/20/24 26/21/26 37/23/37
f 26/21/26 28/24/28 37/23/37
f 28/24/28 30/25/30 37/23/37
f 30/25/30 32/26/32 37/23/37
f 32/26/32 34/27/34 37/23/37
f 34/27/34 36/28/36 37/23/37
f 36/28/36 4/29/4 37/23/37
f 38/1/38 39/2/39 40/3/40 41/4/41 42/5/42 43/6/43 44/7/44 45/8/45 46/9/46 47/10/47 48/11/48 49/12/49 50/13/50 51/14/51 52/15/52 53/16/53 54/17/54 55/18/55
s 1
f 2/81/2 1/82/1 38/83/38 55/84/55
f 1/55/1 35/53/35 39/54/39 38/56/38
f 35/53/35 33/49/33 40/52/40 39/54/39
f 33/49/33 31/50/31 41/51/41 40/52/40
f 31/57/31 29/58/29 42/59/42 41/60/41
f 29/58/29 27/61/27 43/62/43 42/59/42
f 27/61/27 25/63/25 44/64/44 43/62/43
f 25/135/25 23/133/23 45/134/45 44/136/44
f 23/133/23 21/129/21 46/132/46 45/134/45
f 21/129/21 19/130/19 47/131/47 46/132/46
f 19/105/19 17/106/17 48/107/48 47/108/47
f 17/106/17 15/109/15 49/110/49 48/107/48
f 15/109/15 13/111/13 50/112/50 49/110/49
f 13/95/13 11/93/11 51/94/51 50/96/50
f 11/93/11 9/89/9 52/92/52 51/94/51
f 9/89/9 7/90/7 53/91/53 52/92/52
f 7/87/7 5/85/5 54/86/54 53/88/53
f 5/85/5 2/81/2 55/84/55 54/86/54
# totals: 55 136 55 55
